<?xml version="1.0" encoding="UTF-8" standalone="no"?>
<!DOCTYPE svg PUBLIC "-//W3C//DTD SVG 1.1//EN" "http://www.w3.org/Graphics/SVG/1.1/DTD/svg11.dtd">
<svg width="100%" height="100%" viewBox="0 0 1024 1024" version="1.1" xmlns="http://www.w3.org/2000/svg" xmlns:xlink="http://www.w3.org/1999/xlink" xml:space="preserve" xmlns:serif="http://www.serif.com/" style="fill-rule:evenodd;clip-rule:evenodd;stroke-linejoin:round;stroke-miterlimit:2;">
    <g id="Logo_Boxed_R">
        <path d="M512,64L899.979,288L899.979,736L512,960L124.021,736L124.021,288L512,64ZM512,124.021L176,318.01L176,705.99L512,899.979L848,705.99L848,318.01L512,124.021Z" style="fill:rgb(255,0,0);"/>
        <clipPath id="_clip1">
            <path d="M512,64L899.979,288L899.979,736L512,960L124.021,736L124.021,288L512,64ZM512,124.021L176,318.01L176,705.99L512,899.979L848,705.99L848,318.01L512,124.021Z"/>
        </clipPath>
        <g clip-path="url(#_clip1)">
            <g transform="matrix(0.543388,-0.313725,0.328796,0.569492,237.6,583.862)">
                <path d="M436,114L793,704L79,704L436,114Z" style="fill:rgb(63,0,0);"/>
            </g>
            <g transform="matrix(-3.88578e-16,-0.627451,0.657592,-3.33067e-16,437.034,785.569)">
                <path d="M436,114L793,704L79,704L436,114Z" style="fill:rgb(127,0,0);"/>
            </g>
            <g transform="matrix(0.543388,0.313725,-0.328796,0.569492,312.565,310.294)">
                <path d="M436,114L793,704L79,704L436,114Z" style="fill:rgb(127,0,0);"/>
            </g>
            <g transform="matrix(-0.543388,-0.313725,0.328796,-0.569492,711.435,713.706)">
                <path d="M436,114L793,704L79,704L436,114Z" style="fill:rgb(255,63,63);"/>
            </g>
            <g transform="matrix(-3.33067e-16,0.627451,-0.657592,-4.996e-16,586.966,238.431)">
                <path d="M436,114L793,704L79,704L436,114Z" style="fill:rgb(255,63,63);"/>
            </g>
            <g transform="matrix(-0.543388,0.313725,-0.328796,-0.569492,786.4,440.138)">
                <path d="M436,114L793,704L79,704L436,114Z" style="fill:rgb(255,127,127);"/>
            </g>
        </g>
        <path d="M520,50.144L907.979,274.144C912.93,277.002 915.979,282.284 915.979,288L915.979,736C915.979,741.716 912.93,746.998 907.979,749.856L520,973.856C515.05,976.715 508.95,976.715 504,973.856L116.021,749.856C111.07,746.998 108.021,741.716 108.021,736L108.021,288C108.021,282.284 111.07,277.002 116.021,274.144L504,50.144C508.95,47.285 515.05,47.285 520,50.144ZM512,64L124.021,288L124.021,736L512,960L899.979,736L899.979,288L512,64ZM512,124.021L848,318.01L848,705.99L512,899.979L176,705.99L176,318.01L512,124.021ZM512,142.496L192,327.248L192,696.752L512,881.504L832,696.752L832,327.248L512,142.496Z" style="fill:rgb(192,192,0);"/>
        <g transform="matrix(13.8734,0,0,13.8734,-6976.44,-6386.77)">
            <path d="M536.305,465.255C539.105,465.155 541.547,465.339 543.63,465.805C545.714,466.272 547.514,466.93 549.03,467.78C550.547,468.63 551.814,469.614 552.83,470.73C553.847,471.847 554.664,473.022 555.28,474.255C555.897,475.489 556.364,476.722 556.68,477.955C556.997,479.189 557.214,480.33 557.33,481.38C557.447,482.43 557.505,483.347 557.505,484.13L557.505,485.755C557.505,488.289 557.122,490.539 556.355,492.505C555.589,494.472 554.564,496.197 553.28,497.68C551.997,499.164 550.522,500.422 548.855,501.455C547.189,502.489 545.472,503.355 543.705,504.055C544.805,506.455 546.014,508.889 547.33,511.355C548.647,513.822 550.055,516.13 551.555,518.28C553.055,520.43 554.647,522.339 556.33,524.005C558.014,525.672 559.772,526.889 561.605,527.655C562.172,527.922 562.539,528.155 562.705,528.355C562.872,528.555 562.88,528.722 562.73,528.855C562.58,528.989 562.305,529.097 561.905,529.18C561.505,529.264 561.022,529.305 560.455,529.305C559.889,529.305 559.264,529.239 558.58,529.105C557.897,528.972 557.222,528.739 556.555,528.405C554.622,527.372 552.764,526.03 550.98,524.38C549.197,522.73 547.505,520.897 545.905,518.88C544.305,516.864 542.814,514.73 541.43,512.48C540.047,510.23 538.805,508.005 537.705,505.805C537.072,505.939 536.464,506.047 535.88,506.13C535.297,506.214 534.722,506.289 534.155,506.355C534.155,508.155 534.147,509.855 534.13,511.455C534.114,513.055 534.097,514.472 534.08,515.705C534.064,516.939 534.03,517.947 533.98,518.73C533.93,519.514 533.855,520.005 533.755,520.205C533.455,520.805 532.889,521.255 532.055,521.555C531.222,521.855 530.355,522.005 529.455,522.005C528.455,522.005 527.589,521.805 526.855,521.405C526.122,521.005 525.839,520.439 526.005,519.705C526.372,518.005 526.68,515.972 526.93,513.605C527.18,511.239 527.389,508.705 527.555,506.005C526.055,505.672 524.655,505.197 523.355,504.58C522.055,503.964 520.914,503.239 519.93,502.405C518.947,501.572 518.172,500.63 517.605,499.58C517.039,498.53 516.739,497.405 516.705,496.205C516.772,494.739 517.172,493.405 517.905,492.205C518.639,491.005 519.564,489.955 520.68,489.055C521.797,488.155 523.039,487.405 524.405,486.805C525.772,486.205 527.105,485.755 528.405,485.455C528.572,482.555 528.772,479.964 529.005,477.68C529.239,475.397 529.589,473.655 530.055,472.455C530.322,471.755 530.83,471.239 531.58,470.905C532.33,470.572 533.072,470.405 533.805,470.405C534.572,470.405 535.18,470.555 535.63,470.855C536.08,471.155 536.155,471.622 535.855,472.255C535.655,472.755 535.48,473.422 535.33,474.255C535.18,475.089 535.039,476.064 534.905,477.18C534.772,478.297 534.664,479.539 534.58,480.905C534.497,482.272 534.422,483.705 534.355,485.205C535.955,485.405 537.289,485.739 538.355,486.205C539.422,486.672 540.264,487.189 540.88,487.755C541.497,488.322 541.914,488.897 542.13,489.48C542.347,490.064 542.439,490.555 542.405,490.955C542.339,491.489 542.097,491.914 541.68,492.23C541.264,492.547 540.822,492.78 540.355,492.93C539.889,493.08 539.464,493.147 539.08,493.13C538.697,493.114 538.489,493.005 538.455,492.805C538.489,492.639 538.514,492.447 538.53,492.23C538.547,492.014 538.555,491.822 538.555,491.655C538.555,490.689 538.23,489.83 537.58,489.08C536.93,488.33 535.839,487.855 534.305,487.655C534.239,490.255 534.197,492.905 534.18,495.605C534.164,498.305 534.155,500.955 534.155,503.555C536.889,503.189 539.197,502.614 541.08,501.83C542.964,501.047 544.53,500.147 545.78,499.13C547.03,498.114 548.005,497.03 548.705,495.88C549.405,494.73 549.93,493.622 550.28,492.555C550.63,491.489 550.83,490.522 550.88,489.655C550.93,488.789 550.955,488.122 550.955,487.655L550.955,487.155C551.022,484.222 550.822,481.697 550.355,479.58C549.889,477.464 549.247,475.68 548.43,474.23C547.614,472.78 546.68,471.614 545.63,470.73C544.58,469.847 543.514,469.172 542.43,468.705C541.347,468.239 540.289,467.947 539.255,467.83C538.222,467.714 537.339,467.672 536.605,467.705C534.172,467.972 532.13,468.43 530.48,469.08C528.83,469.73 527.489,470.43 526.455,471.18C525.422,471.93 524.639,472.672 524.105,473.405C523.572,474.139 523.189,474.705 522.955,475.105C522.889,475.205 522.83,475.305 522.78,475.405C522.73,475.505 522.672,475.589 522.605,475.655C522.539,475.755 522.489,475.822 522.455,475.855L522.505,475.855C522.305,475.955 522.047,476.055 521.73,476.155C521.414,476.255 521.089,476.297 520.755,476.28C520.422,476.264 520.122,476.164 519.855,475.98C519.589,475.797 519.405,475.489 519.305,475.055C519.272,474.855 519.38,474.48 519.63,473.93C519.88,473.38 520.289,472.755 520.855,472.055C521.422,471.355 522.155,470.622 523.055,469.855C523.955,469.089 525.039,468.372 526.305,467.705C527.572,467.039 529.039,466.48 530.705,466.03C532.372,465.58 534.239,465.322 536.305,465.255ZM528.305,488.105C526.705,488.472 525.447,489.005 524.53,489.705C523.614,490.405 522.905,491.147 522.405,491.93C521.905,492.714 521.572,493.48 521.405,494.23C521.239,494.98 521.122,495.589 521.055,496.055C520.955,497.022 521.097,497.889 521.48,498.655C521.864,499.422 522.38,500.097 523.03,500.68C523.68,501.264 524.422,501.755 525.255,502.155C526.089,502.555 526.905,502.872 527.705,503.105C527.772,501.605 527.839,500.114 527.905,498.63C527.972,497.147 528.039,495.689 528.105,494.255L528.305,488.105Z" style="fill:rgb(255,0,0);fill-rule:nonzero;"/>
            <path d="M530.059,470.502C528.894,471.009 527.918,471.544 527.133,472.114C526.215,472.78 525.512,473.432 525.038,474.084C524.535,474.776 524.172,475.309 523.952,475.687C523.94,475.706 523.928,475.726 523.915,475.745C523.876,475.804 523.841,475.862 523.812,475.921C523.739,476.067 523.656,476.196 523.566,476.309C523.461,476.553 523.273,476.761 523.021,476.887C522.777,477.009 522.464,477.133 522.078,477.255C521.63,477.397 521.17,477.456 520.698,477.432C520.144,477.405 519.645,477.236 519.202,476.931C518.728,476.605 518.359,476.084 518.182,475.315C518.176,475.292 518.172,475.268 518.168,475.245C518.115,474.931 518.188,474.317 518.581,473.453C518.863,472.831 519.318,472.121 519.959,471.33C520.564,470.582 521.346,469.797 522.308,468.977C523.266,468.161 524.419,467.395 525.768,466.685C527.103,465.982 528.648,465.391 530.405,464.917C532.149,464.446 534.103,464.173 536.266,464.103C539.178,463.999 541.716,464.195 543.883,464.68C546.087,465.174 547.99,465.875 549.594,466.774C551.227,467.69 552.589,468.752 553.683,469.954C554.775,471.153 555.65,472.416 556.312,473.74C556.967,475.049 557.461,476.359 557.797,477.669C558.129,478.959 558.355,480.154 558.477,481.253C558.599,482.352 558.659,483.311 558.659,484.13L558.659,485.755C558.659,488.446 558.244,490.835 557.43,492.924C556.613,495.019 555.519,496.855 554.153,498.435C552.793,500.007 551.229,501.341 549.463,502.436C548.093,503.285 546.691,504.025 545.256,504.657C546.209,506.685 547.24,508.737 548.348,510.812C549.642,513.237 551.027,515.507 552.501,517.621C553.959,519.71 555.506,521.566 557.142,523.186C558.71,524.738 560.343,525.877 562.05,526.591C562.066,526.598 562.081,526.605 562.096,526.612C562.879,526.98 563.361,527.341 563.591,527.617C563.961,528.06 564.027,528.491 563.976,528.846C563.93,529.157 563.789,529.458 563.497,529.717C563.246,529.94 562.808,530.17 562.141,530.309C561.676,530.406 561.114,530.459 560.455,530.459C559.822,530.459 559.123,530.386 558.36,530.237C557.577,530.085 556.803,529.819 556.04,529.437C556.03,529.432 556.021,529.427 556.012,529.423C553.996,528.345 552.057,526.948 550.197,525.227C548.372,523.538 546.64,521.662 545.002,519.597C543.374,517.545 541.856,515.374 540.448,513.084C539.21,511.072 538.085,509.078 537.071,507.105C536.721,507.169 536.378,507.224 536.044,507.272C535.797,507.307 535.552,507.341 535.308,507.373C535.305,508.804 535.297,510.169 535.284,511.467C535.267,513.069 535.25,514.487 535.234,515.721C535.217,516.978 535.182,518.006 535.131,518.804C535.066,519.827 534.918,520.46 534.787,520.721C534.369,521.558 533.608,522.222 532.446,522.641C531.487,522.986 530.491,523.159 529.455,523.159C528.242,523.159 527.193,522.903 526.303,522.418C525.036,521.726 524.594,520.723 524.879,519.456C525.238,517.791 525.539,515.801 525.784,513.484C526.002,511.416 526.188,509.22 526.343,506.895C525.115,506.566 523.955,506.141 522.861,505.622C521.465,504.96 520.241,504.18 519.185,503.285C518.087,502.355 517.223,501.301 516.59,500.128C515.937,498.918 515.591,497.621 515.553,496.237C515.552,496.209 515.552,496.181 515.553,496.153C515.629,494.485 516.087,492.969 516.921,491.604C517.724,490.291 518.735,489.142 519.957,488.157C521.151,487.195 522.48,486.391 523.942,485.749C525.085,485.248 526.205,484.846 527.304,484.545C527.461,481.965 527.646,479.638 527.858,477.563C528.105,475.149 528.486,473.31 528.979,472.041C529.212,471.432 529.57,470.917 530.059,470.502ZM536.305,465.255C534.239,465.322 532.372,465.58 530.705,466.03C529.039,466.48 527.572,467.039 526.305,467.705C525.039,468.372 523.955,469.089 523.055,469.855C522.155,470.622 521.422,471.355 520.855,472.055C520.289,472.755 519.88,473.38 519.63,473.93C519.38,474.48 519.272,474.855 519.305,475.055C519.405,475.489 519.589,475.797 519.855,475.98C520.122,476.164 520.422,476.264 520.755,476.28C521.089,476.297 521.414,476.255 521.73,476.155C522.047,476.055 522.305,475.955 522.505,475.855L522.455,475.855C522.489,475.822 522.539,475.755 522.605,475.655C522.672,475.589 522.73,475.505 522.78,475.405C522.83,475.305 522.889,475.205 522.955,475.105C523.189,474.705 523.572,474.139 524.105,473.405C524.639,472.672 525.422,471.93 526.455,471.18C527.489,470.43 528.83,469.73 530.48,469.08C532.13,468.43 534.172,467.972 536.605,467.705C537.339,467.672 538.222,467.714 539.255,467.83C540.289,467.947 541.347,468.239 542.43,468.705C543.514,469.172 544.58,469.847 545.63,470.73C546.68,471.614 547.614,472.78 548.43,474.23C549.247,475.68 549.889,477.464 550.355,479.58C550.822,481.697 551.022,484.222 550.955,487.155L550.955,487.655C550.955,488.122 550.93,488.789 550.88,489.655C550.83,490.522 550.63,491.489 550.28,492.555C549.93,493.622 549.405,494.73 548.705,495.88C548.005,497.03 547.03,498.114 545.78,499.13C544.53,500.147 542.964,501.047 541.08,501.83C539.197,502.614 536.889,503.189 534.155,503.555C534.155,500.955 534.164,498.305 534.18,495.605C534.197,492.905 534.239,490.255 534.305,487.655C535.839,487.855 536.93,488.33 537.58,489.08C538.23,489.83 538.555,490.689 538.555,491.655C538.555,491.822 538.547,492.014 538.53,492.23C538.514,492.447 538.489,492.639 538.455,492.805C538.489,493.005 538.697,493.114 539.08,493.13C539.464,493.147 539.889,493.08 540.355,492.93C540.822,492.78 541.264,492.547 541.68,492.23C542.097,491.914 542.339,491.489 542.405,490.955C542.439,490.555 542.347,490.064 542.13,489.48C541.914,488.897 541.497,488.322 540.88,487.755C540.264,487.189 539.422,486.672 538.355,486.205C537.289,485.739 535.955,485.405 534.355,485.205C534.422,483.705 534.497,482.272 534.58,480.905C534.664,479.539 534.772,478.297 534.905,477.18C535.039,476.064 535.18,475.089 535.33,474.255C535.48,473.422 535.655,472.755 535.855,472.255C536.155,471.622 536.08,471.155 535.63,470.855C535.18,470.555 534.572,470.405 533.805,470.405C533.072,470.405 532.33,470.572 531.58,470.905C530.83,471.239 530.322,471.755 530.055,472.455C529.589,473.655 529.239,475.397 529.005,477.68C528.772,479.964 528.572,482.555 528.405,485.455C527.105,485.755 525.772,486.205 524.405,486.805C523.039,487.405 521.797,488.155 520.68,489.055C519.564,489.955 518.639,491.005 517.905,492.205C517.172,493.405 516.772,494.739 516.705,496.205C516.739,497.405 517.039,498.53 517.605,499.58C518.172,500.63 518.947,501.572 519.93,502.405C520.914,503.239 522.055,503.964 523.355,504.58C524.655,505.197 526.055,505.672 527.555,506.005C527.389,508.705 527.18,511.239 526.93,513.605C526.68,515.972 526.372,518.005 526.005,519.705C525.839,520.439 526.122,521.005 526.855,521.405C527.589,521.805 528.455,522.005 529.455,522.005C530.355,522.005 531.222,521.855 532.055,521.555C532.889,521.255 533.455,520.805 533.755,520.205C533.855,520.005 533.93,519.514 533.98,518.73C534.03,517.947 534.064,516.939 534.08,515.705C534.097,514.472 534.114,513.055 534.13,511.455C534.147,509.855 534.155,508.155 534.155,506.355C534.722,506.289 535.297,506.214 535.88,506.13C536.464,506.047 537.072,505.939 537.705,505.805C538.805,508.005 540.047,510.23 541.43,512.48C542.814,514.73 544.305,516.864 545.905,518.88C547.505,520.897 549.197,522.73 550.98,524.38C552.764,526.03 554.622,527.372 556.555,528.405C557.222,528.739 557.897,528.972 558.58,529.105C559.264,529.239 559.889,529.305 560.455,529.305C561.022,529.305 561.505,529.264 561.905,529.18C562.305,529.097 562.58,528.989 562.73,528.855C562.88,528.722 562.872,528.555 562.705,528.355C562.539,528.155 562.172,527.922 561.605,527.655C559.772,526.889 558.014,525.672 556.33,524.005C554.647,522.339 553.055,520.43 551.555,518.28C550.055,516.13 548.647,513.822 547.33,511.355C546.014,508.889 544.805,506.455 543.705,504.055C545.472,503.355 547.189,502.489 548.855,501.455C550.522,500.422 551.997,499.164 553.28,497.68C554.564,496.197 555.589,494.472 556.355,492.505C557.122,490.539 557.505,488.289 557.505,485.755L557.505,484.13C557.505,483.347 557.447,482.43 557.33,481.38C557.214,480.33 556.997,479.189 556.68,477.955C556.364,476.722 555.897,475.489 555.28,474.255C554.664,473.022 553.847,471.847 552.83,470.73C551.814,469.614 550.547,468.63 549.03,467.78C547.514,466.93 545.714,466.272 543.63,465.805C541.547,465.339 539.105,465.155 536.305,465.255ZM528.305,488.105L528.105,494.255C528.039,495.689 527.972,497.147 527.905,498.63C527.839,500.114 527.772,501.605 527.705,503.105C526.905,502.872 526.089,502.555 525.255,502.155C524.422,501.755 523.68,501.264 523.03,500.68C522.38,500.097 521.864,499.422 521.48,498.655C521.097,497.889 520.955,497.022 521.055,496.055C521.122,495.589 521.239,494.98 521.405,494.23C521.572,493.48 521.905,492.714 522.405,491.93C522.905,491.147 523.614,490.405 524.53,489.705C525.447,489.005 526.705,488.472 528.305,488.105ZM527.101,489.65C526.36,489.915 525.735,490.237 525.23,490.622C524.433,491.231 523.812,491.87 523.378,492.551C522.957,493.209 522.671,493.85 522.531,494.481C522.375,495.183 522.264,495.754 522.2,496.196C522.129,496.918 522.225,497.567 522.512,498.14C522.831,498.777 523.261,499.337 523.801,499.822C524.371,500.334 525.023,500.765 525.754,501.116C526.046,501.256 526.335,501.385 526.622,501.503C526.666,500.524 526.71,499.55 526.753,498.579C526.82,497.097 526.886,495.641 526.953,494.21L527.101,489.65ZM534.055,469.257C534.976,469.292 535.71,469.522 536.27,469.896C536.683,470.171 536.943,470.52 537.08,470.918C537.248,471.403 537.24,472.007 536.915,472.713C536.742,473.153 536.596,473.736 536.465,474.46C536.319,475.274 536.181,476.226 536.051,477.317C535.92,478.414 535.813,479.633 535.732,480.976C535.668,482.018 535.609,483.098 535.556,484.218C536.822,484.439 537.909,484.751 538.818,485.149C540.021,485.675 540.965,486.267 541.661,486.906C542.433,487.616 542.94,488.348 543.212,489.079C543.501,489.857 543.599,490.517 543.555,491.051C543.553,491.067 543.552,491.083 543.55,491.098C543.442,491.957 543.049,492.639 542.378,493.149C541.853,493.547 541.296,493.839 540.708,494.028C540.095,494.226 539.534,494.305 539.03,494.283C537.864,494.232 537.419,493.603 537.318,492.995C537.295,492.857 537.297,492.716 537.325,492.579C537.35,492.453 537.368,492.307 537.381,492.142C537.395,491.959 537.402,491.796 537.402,491.655C537.402,490.972 537.169,490.366 536.709,489.836C536.409,489.489 535.977,489.242 535.425,489.065C535.378,491.214 535.347,493.396 535.334,495.613C535.32,497.848 535.312,500.049 535.309,502.215C537.365,501.869 539.142,501.388 540.638,500.766C542.406,500.03 543.879,499.19 545.053,498.236C546.191,497.31 547.083,496.328 547.72,495.281C548.37,494.213 548.86,493.186 549.185,492.196C549.499,491.237 549.684,490.368 549.729,489.589C549.777,488.751 549.802,488.107 549.802,487.655L549.802,487.155C549.802,487.147 549.802,487.138 549.802,487.129C549.867,484.302 549.679,481.869 549.229,479.829C548.79,477.839 548.193,476.16 547.426,474.796C546.684,473.479 545.842,472.415 544.888,471.613C543.931,470.808 542.961,470.19 541.974,469.765C541.002,469.346 540.053,469.081 539.126,468.976C538.181,468.87 537.37,468.828 536.694,468.856C535.752,468.96 534.872,469.093 534.055,469.257Z" style="fill:rgb(255,255,0);"/>
        </g>
    </g>
</svg>
